Coordinates
version=1
nRows=12
nColumns=23
inDegrees=yes

Units are S.I. units (second, meters, Newtons, ...)
If the header above contains a line with 'inDegrees', this indicates whether rotational values are in degrees (yes) or radians (no).

endheader
time	pelvis_tilt	pelvis_list	pelvis_rotation	pelvis_tx	pelvis_ty	pelvis_tz	hip_flexion_r	hip_adduction_r	hip_rotation_r	knee_angle_r	knee_angle_r_beta	ankle_angle_r	subtalar_angle_r	mtp_angle_r	hip_flexion_l	hip_adduction_l	hip_rotation_l	knee_angle_l	knee_angle_l_beta	ankle_angle_l	subtalar_angle_l	mtp_angle_l
      7.50000000	     -4.76712247	     -5.22533661	     -9.32325978	      2.33193183	      0.94719478	      1.08885347	     30.27841323	     13.92258599	      2.60482301	     17.68741454	      0.30870362	     12.03700869	      5.94481082	      0.00000000	    -15.53770067	     -6.52673832	    -20.80285373	     90.19913788	      1.57427194	    -19.11813407	    -22.93771966	      0.00000000
      7.50666667	     -4.23966035	     -5.85541226	     -9.99028915	      2.33014730	      0.94358090	      1.08938222	     29.10119261	     14.53768353	      2.35539196	     18.95651319	      0.33085357	     10.72452686	      5.18231683	      0.00000000	    -14.76557539	     -7.31436003	    -21.21965656	     94.60617624	      1.65118927	    -18.84015343	    -24.52307905	      0.00000000
      7.51333333	     -3.94902338	     -6.34284418	    -10.88223971	      2.32776151	      0.93924401	      1.09011292	     28.47272904	     15.14971943	      2.37598925	     21.06503021	      0.36765413	      9.37312708	      3.90587045	      0.00000000	    -13.62087099	     -7.99681588	    -21.71969754	     99.01025454	      1.72805493	    -18.14819935	    -25.45391262	      0.00000000
      7.52000000	     -3.63475039	     -6.91919128	    -11.76349799	      2.32512967	      0.93469041	      1.09066068	     28.01041257	     15.74043443	      2.04662607	     23.81262808	      0.41560876	      8.39337374	      3.05345907	      0.00000000	    -12.42725599	     -8.81261666	    -22.12969116	    103.33145887	      1.80347418	    -17.28337316	    -25.88155273	      0.00000000
      7.52666667	     -2.97639801	     -7.79305828	    -12.52223311	      2.32244019	      0.93059286	      1.09081804	     27.14371220	     16.43993347	      1.57690170	     26.77816170	      0.46736709	      7.80152153	      2.25907400	      0.00000000	    -11.60377714	     -9.96566176	    -22.42704466	    107.47153183	      1.87573208	    -16.49831821	    -26.10886331	      0.00000000
      7.53333333	     -3.28248712	     -7.82067417	    -13.49457586	      2.31892451	      0.92485443	      1.09096516	     27.85770856	     16.43696100	      1.03526703	     30.78246968	      0.53725545	      8.40199854	      2.52465781	      0.00000000	     -9.23401523	    -10.31626770	    -22.41970805	    111.65149900	      1.94868627	    -15.47931951	    -25.65028516	      0.00000000
      7.54000000	     -3.15162170	     -8.23797421	    -14.24486220	      2.31558999	      0.92007476	      1.09056229	     27.80228342	     16.58101848	      0.47526023	     34.45120020	      0.60128687	      9.46589927	      2.87071181	      0.00000000	     -7.31387387	    -11.10391050	    -22.21155308	    115.54612539	      2.01666033	    -14.50988786	    -24.83543321	      0.00000000
      7.54666667	     -2.99746188	     -8.68033816	    -14.84431565	      2.31226467	      0.91575268	      1.08976967	     27.52018281	     16.64887752	      0.04521893	     37.86653503	      0.66089571	     11.12592940	      3.48537196	      0.00000000	     -5.21886907	    -11.99586410	    -21.72221759	    119.19080500	      2.08027199	    -13.45977280	    -23.46917050	      0.00000000
      7.55333333	     -2.93648608	     -9.02676120	    -15.31982316	      2.30890923	      0.91185459	      1.08858649	     27.13993415	     16.50604688	     -0.38245163	     40.96949427	      0.71505257	     13.25434874	      4.53895991	      0.00000000	     -2.74139167	    -12.82985474	    -20.92705607	    122.53873211	      2.13870434	    -12.46343514	    -21.72682411	      0.00000000
      7.56000000	     -2.85415488	     -9.44003446	    -15.64469210	      2.30564168	      0.90872864	      1.08720239	     26.36008067	     16.41462055	     -0.52980345	     43.44883073	      0.75832515	     15.49424681	      5.45474962	      0.00000000	     -0.07049766	    -13.80223004	    -19.86117990	    125.53549091	      2.19100764	    -11.36796564	    -19.39871106	      0.00000000
      7.56666667	     -2.98618950	     -9.58721459	    -15.82459909	      2.30239383	      0.90597281	      1.08551141	     25.62262068	     15.96654177	     -0.72642460	     45.53496276	      0.79473502	     17.96842132	      6.85956106	      0.00000000	      3.21118443	    -14.50874199	    -18.49594780	    128.14612388	      2.23657179	    -10.42829391	    -17.09615985	      0.00000000
      7.57333333	     -3.04340781	     -9.88334717	    -15.80737975	      2.29936957	      0.90421628	      1.08382332	     24.35236423	     15.73022832	     -0.59694575	     46.82595418	      0.81726708	     20.15842191	      7.63308451	      0.00000000	      6.59590493	    -15.39415164	    -16.82177372	    130.30642851	      2.27427621	     -9.37634335	    -14.34125180	      0.00000000
